<svg width="20" height="30" viewBox="0 0 20 30" fill="none" xmlns="http://www.w3.org/2000/svg">
<path fill-rule="evenodd" clip-rule="evenodd" d="M15 2.922V4H5V2.922C5 2.526 5.448 2 5.786 2H8.989C9.264 2 9.489 1.776 9.489 1.5C9.489 1.124 9.554 1.041 9.554 1.041C9.615 1 9.896 1 10.082 1H10.238C10.404 1 10.61 1 10.622 0.983C10.628 0.993 10.676 1.091 10.676 1.5C10.676 1.776 10.901 2 11.176 2H14.379C14.675 2 15 2.482 15 2.922ZM4 2.922V4H0.5C0.224 4 0 4.224 0 4.5V29.5C0 29.775 0.224 30 0.5 30H19.5C19.775 30 20 29.775 20 29.5V4.5C20 4.224 19.775 4 19.5 4H16V2.922C16 2.013 15.334 1 14.378 1H11.643C11.509 0.08 10.965 0 10.238 0H10.082C9.494 0 8.717 0 8.53 1H5.785C4.823 1 3.999 2.057 4 2.922ZM19 29H1V5H19V29ZM4.5 26H15.5C15.775 26 16 25.775 16 25.5V8.5C16 8.224 15.775 8 15.5 8H8.32C8.213 8 8.109 8.035 8.023 8.098L4.203 10.923C4.075 11.017 4 11.167 4 11.325V25.5C4 25.775 4.224 26 4.5 26ZM15 25H5V12H8.5C8.776 12 9 11.776 9 11.5V9H15V25ZM8 9.35863L5.7803 11H8V9.35863ZM8 16H13C13.275 16 13.5 15.775 13.5 15.5C13.5 15.224 13.275 15 13 15H8C7.724 15 7.5 15.224 7.5 15.5C7.5 15.775 7.724 16 8 16ZM13 19H8C7.724 19 7.5 18.775 7.5 18.5C7.5 18.225 7.724 18 8 18H13C13.275 18 13.5 18.225 13.5 18.5C13.5 18.775 13.275 19 13 19ZM8 22H13C13.275 22 13.5 21.775 13.5 21.5C13.5 21.225 13.275 21 13 21H8C7.724 21 7.5 21.225 7.5 21.5C7.5 21.775 7.724 22 8 22Z" fill="white"/>
</svg>
