<svg width="30" height="24" viewBox="0 0 30 24" fill="none" xmlns="http://www.w3.org/2000/svg">
<path fill-rule="evenodd" clip-rule="evenodd" d="M30 18C30 19.654 28.654 21 27 21H17.5V23H20C20.275 23 20.5 23.225 20.5 23.5C20.5 23.775 20.275 24 20 24H10C9.724 24 9.5 23.775 9.5 23.5C9.5 23.225 9.724 23 10 23H12.5V21H3C1.346 21 0 19.654 0 18V3C0 1.346 1.346 0 3 0H27C28.654 0 30 1.346 30 3V18ZM13.5 23H16.5V21H13.5V23ZM3 1C1.897 1 1 1.897 1 3V16H29V3C29 1.897 28.104 1 27 1H3ZM1 18V17H29V18C29 19.104 28.104 20 27 20H3C1.897 20 1 19.104 1 18ZM15 14.211C12.243 14.211 10 11.902 10 9.065V3.93C10 3.793 10.056 3.663 10.155 3.569C10.254 3.474 10.386 3.425 10.524 3.431C13.159 3.556 13.572 3.176 14.528 2.226L14.649 2.106C14.844 1.913 15.157 1.915 15.352 2.106C16.382 3.125 17.709 3.556 19.465 3.431C19.602 3.423 19.738 3.47 19.841 3.564C19.943 3.659 20 3.792 20 3.93V9.065C20 11.902 17.757 14.211 15 14.211ZM11 4.447V9.065C11 11.351 12.794 13.211 15 13.211C17.206 13.211 19 11.351 19 9.065V4.451C17.441 4.479 16.08 4.032 15.015 3.149C14.08 4.051 13.378 4.496 11 4.447Z" fill="white"/>
</svg>
