<svg width="27" height="30" viewBox="0 0 27 30" fill="none" xmlns="http://www.w3.org/2000/svg">
<path fill-rule="evenodd" clip-rule="evenodd" d="M9.78343 19.4559C7.85987 17.9895 6.53211 15.4464 6.382 13.123C5.605 12.912 5 12.215 5 11.438V8.938C5 8.225 5.628 7.677 6 7.415V5.188C6 2.802 7.667 0.994 9.895 0.939C10.349 0.751 12.28 0 14.25 0C17.313 0 19 1.843 19 5.188V7.201C20.666 7.296 21 7.899 21 8.938V11.438C21 12.255 20.521 12.908 19.826 13.117C19.6948 15.3517 18.5517 17.7335 16.8391 19.2161L18.618 22.062H20.216C24.337 22.062 26.999 24.27 26.999 27.687V29.062C27 29.339 26.775 29.563 26.5 29.563C26.224 29.563 26 29.338 26 29.063V27.688C26 24.278 23.012 23.063 20.215 23.063H18.4641L13.468 25.633C13.396 25.669 13.316 25.688 13.239 25.688C13.159 25.688 13.079 25.668 13.007 25.631L8.11557 23.063H6.364C2.955 23.063 1 24.749 1 27.688V29.063C1 29.339 0.775 29.563 0.5 29.563C0.224 29.563 0 29.338 0 29.063V27.688C0 24.167 2.379 22.063 6.364 22.063H7.977L9.78343 19.4559ZM8.97201 22.3833L13.242 24.623L17.6286 22.3685L16.0358 19.8163C15.1752 20.3636 14.2083 20.688 13.178 20.688C12.2728 20.688 11.41 20.4361 10.6213 20.0031L8.97201 22.3833ZM14.25 1C12.3006 1 10.3207 1.84437 10.207 1.89288L10.202 1.895C10.139 1.924 10.07 1.938 10 1.938C8.262 1.938 7 3.305 7 5.188V7.688C7 7.868 6.902 8.035 6.745 8.124C6.432 8.301 6 8.682 6 8.938V11.438C6 11.823 6.422 12.188 6.869 12.188C7.145 12.188 7.369 12.412 7.369 12.688C7.369 15.858 9.961 19.688 13.179 19.688C16.315 19.688 18.84 15.858 18.84 12.688C18.84 12.412 19.064 12.188 19.34 12.188C19.793 12.188 20 11.799 20 11.438V8.938C20 8.407 20 8.188 18.5 8.188C18.224 8.188 18 7.964 18 7.688V5.188C18 2.37 16.772 1 14.25 1Z" fill="white"/>
</svg>
