<svg width="28" height="23" viewBox="0 0 28 23" fill="none" xmlns="http://www.w3.org/2000/svg">
<path fill-rule="evenodd" clip-rule="evenodd" d="M2.33333 23H25.6667C26.9528 23 28 21.7097 28 20.125V2.875C28 1.2903 26.9528 0 25.6667 0H2.33333C1.0472 0 0 1.2903 0 2.875V20.125C0 21.7097 1.0472 23 2.33333 23ZM0.933333 2.875C0.933333 1.92395 1.56147 1.15 2.33333 1.15H25.6667C26.4385 1.15 27.0667 1.92395 27.0667 2.875V20.125C27.0667 21.076 26.4385 21.85 25.6667 21.85H2.33333C1.56147 21.85 0.933333 21.076 0.933333 20.125V2.875Z" fill="white"/>
</svg>
