<svg width="24" height="30" viewBox="0 0 24 30" fill="none" xmlns="http://www.w3.org/2000/svg">
<path fill-rule="evenodd" clip-rule="evenodd" d="M2.29594 9.63617C2.17005 9.63617 2.04417 9.58817 1.94648 9.49217C-0.648826 6.91419 -0.648826 2.71923 1.94648 0.143249C2.13883 -0.0477496 2.45103 -0.0477496 2.64339 0.143249C2.83575 0.333247 2.83575 0.644245 2.64339 0.835243C0.432802 3.03022 0.432802 6.6022 2.64339 8.79818C2.83575 8.98917 2.83575 9.30017 2.64339 9.49117C2.54772 9.59017 2.42284 9.63617 2.29594 9.63617ZM4.41287 9.49217C4.51056 9.58817 4.63645 9.63617 4.76233 9.63617C4.88822 9.63617 5.01411 9.59017 5.11079 9.49117C5.30214 9.30017 5.30214 8.98917 5.11079 8.79818C2.9002 6.6022 2.9002 3.03022 5.11079 0.835243C5.30214 0.644245 5.30214 0.333247 5.11079 0.143249C4.91743 -0.0477496 4.60523 -0.0477496 4.41287 0.143249C1.81757 2.71923 1.81757 6.91419 4.41287 9.49217ZM13.1324 9.49217C13.229 9.58817 13.3559 9.63617 13.4818 9.63617C13.6087 9.63617 13.7336 9.59017 13.8293 9.49317C16.4246 6.91519 16.4246 2.72023 13.8293 0.144249C13.6369 -0.0467496 13.3237 -0.0467496 13.1324 0.144249C12.94 0.334247 12.94 0.645245 13.1324 0.836243C15.3419 3.02922 15.3419 6.6032 13.1324 8.79918C12.94 8.99218 12.94 9.30217 13.1324 9.49217ZM8.21267 8.95425V16.7081C8.21267 16.9131 8.08476 17.0971 7.8914 17.1681C7.70106 17.2381 7.4805 17.1851 7.34656 17.0281L4.86204 14.1781C4.6586 13.9801 4.38064 13.8581 4.08556 13.8581C3.76631 13.8581 3.44504 14.0031 3.18118 14.2651C2.68166 14.7611 2.80956 16.1501 3.26578 16.7891C3.88414 17.6531 4.55185 19.1441 5.3243 20.8701C6.86516 24.311 8.97504 29.022 11.1625 29.022H17.9896C18.7349 28.548 23.01 25.655 23.01 21.5851V14.9611C23.01 14.3001 22.2909 13.6751 21.5306 13.6751C20.7551 13.6751 20.0501 14.2751 20.0501 14.9351C20.0501 15.2041 19.8286 15.4251 19.5577 15.4251C19.2847 15.4251 19.0642 15.2041 19.0642 14.9351V13.7351C19.0642 13.0741 18.33 12.4491 17.5515 12.4491C16.7821 12.4491 16.1043 13.0381 16.1043 13.7091C16.1043 13.9801 15.8828 14.1991 15.6108 14.1991C15.3389 14.1991 15.1184 13.9801 15.1184 13.7091V12.5101C15.1184 11.8492 14.3993 11.2242 13.6379 11.2242C12.8635 11.2242 12.1585 11.8242 12.1585 12.4841C12.1585 12.7541 11.9379 12.9741 11.665 12.9741C11.3931 12.9741 11.1715 12.7541 11.1715 12.4841V5.13721C11.1715 4.47721 10.4656 3.87722 9.6921 3.87722C8.93174 3.87722 8.21267 4.50221 8.21267 5.16321V8.54183C8.26449 8.65216 8.27531 8.78149 8.23281 8.90518C8.22692 8.92206 8.22018 8.93843 8.21267 8.95425ZM5.78354 8.08418C6.2053 8.50378 6.68991 8.8331 7.22973 9.06673V15.3961L5.58715 13.5141C4.73615 12.6721 3.36347 12.6981 2.48326 13.5711C1.60003 14.4501 1.74908 16.3591 2.46211 17.3551C3.02408 18.1411 3.70387 19.6571 4.42395 21.2671L4.4244 21.2681C6.25721 25.3608 8.33476 30 11.1635 30H18.1306C18.2192 30 18.3058 29.978 18.3824 29.933C18.613 29.799 24 26.584 24 21.5841V14.9601C24 13.7531 22.8489 12.6941 21.5346 12.6941C20.9586 12.6941 20.4137 12.8951 19.9827 13.2211C19.7128 12.2441 18.6926 11.4702 17.5556 11.4702C16.9855 11.4702 16.4538 11.6622 16.0328 11.9772C15.7589 11.0082 14.7568 10.2452 13.642 10.2452C13.0981 10.2452 12.5805 10.4262 12.1625 10.7202V8.22483C12.2713 8.21369 12.3768 8.16681 12.4596 8.08418C14.3006 6.2562 14.3006 3.28122 12.4596 1.45324C10.6206 -0.371747 7.62553 -0.372747 5.78354 1.45324C3.94255 3.28122 3.94255 6.2562 5.78354 8.08418ZM12.1625 6.9226V5.13821C12.1625 3.94522 11.0104 2.89923 9.69613 2.89923C8.38186 2.89923 7.22973 3.95822 7.22973 5.16521V7.96864C6.95859 7.81009 6.70808 7.61721 6.48045 7.39119C5.02519 5.9452 5.02519 3.59422 6.48045 2.14723C7.93974 0.701244 10.3084 0.702244 11.7627 2.14723C13.0706 3.44587 13.2038 5.47447 12.1625 6.9226ZM15.9472 9.63617C15.8223 9.63617 15.6954 9.58817 15.5988 9.49217C15.4064 9.30217 15.4064 8.99218 15.5988 8.79918C17.8083 6.6032 17.8083 3.02922 15.5988 0.836243C15.4064 0.645245 15.4064 0.334247 15.5988 0.144249C15.7901 -0.0467496 16.1033 -0.0467496 16.2957 0.144249C18.891 2.72023 18.891 6.91519 16.2957 9.49317C16.2 9.59017 16.0741 9.63617 15.9472 9.63617Z" fill="white"/>
</svg>
